<?xml version="1.0" standalone="no"?>
<!DOCTYPE svg PUBLIC "-//W3C//DTD SVG 20010904//EN"
 "http://www.w3.org/TR/2001/REC-SVG-20010904/DTD/svg10.dtd">
<svg version="1.0" xmlns="http://www.w3.org/2000/svg"
 width="253.000000pt" height="74.000000pt" viewBox="0 0 253.000000 74.000000"
 preserveAspectRatio="xMidYMid meet">
<metadata>
Created by potrace 1.16, written by Peter Selinger 2001-2019
</metadata>
<g transform="translate(0.000000,74.000000) scale(0.100000,-0.100000)"
fill="#000000" stroke="none">
<path d="M147 654 c-4 -4 -7 -26 -7 -50 0 -33 -4 -43 -20 -47 -16 -4 -20 -14
-20 -51 0 -39 3 -46 20 -46 18 0 20 -7 20 -75 0 -84 16 -134 51 -159 43 -30
169 -15 169 21 0 8 -7 27 -15 43 -13 25 -22 30 -50 30 l-35 0 0 70 0 70 40 0
c42 0 43 1 43 65 0 32 -4 35 -42 35 l-40 0 -3 48 -3 47 -50 3 c-28 2 -54 0
-58 -4z"/>
<path d="M420 518 c-58 -40 -75 -72 -75 -143 0 -49 5 -70 21 -91 36 -49 70
-67 131 -72 49 -3 64 0 93 20 108 74 109 212 1 285 -47 32 -125 32 -171 1z"/>
<path d="M733 524 c-45 -23 -65 -56 -53 -89 13 -34 13 -86 0 -120 -27 -71 89
-132 170 -90 30 15 30 15 30 -13 0 -16 -9 -37 -20 -47 -24 -21 -92 -24 -116
-4 -14 12 -20 9 -45 -21 -22 -26 -26 -37 -17 -47 38 -46 144 -60 212 -28 21
10 50 36 64 58 26 40 27 44 30 224 l3 183 -51 0 c-35 0 -52 -4 -56 -14 -5 -12
-11 -11 -37 5 -39 23 -71 24 -114 3z"/>
<path d="M1303 532 c-21 -3 -23 -9 -23 -63 0 -56 -1 -59 -19 -49 -81 43 -163
-48 -131 -144 19 -58 79 -84 130 -56 13 7 21 7 25 0 3 -5 17 -10 31 -10 l24 0
0 159 c0 88 -3 161 -7 163 -5 2 -18 2 -30 0z"/>
<path d="M1419 402 c-24 -21 -32 -38 -36 -75 -5 -43 -3 -49 30 -82 30 -30 41
-35 84 -35 59 0 77 10 68 38 -5 19 -12 21 -49 16 -33 -5 -46 -2 -61 12 -18 19
-17 19 58 22 74 3 77 4 77 27 0 91 -103 138 -171 77z"/>
<path d="M1641 411 c-14 -14 -21 -32 -19 -49 3 -24 16 -36 84 -78 15 -9 16
-15 7 -24 -9 -10 -18 -10 -42 0 -25 10 -34 10 -47 -1 -15 -12 -14 -15 6 -31
33 -27 101 -24 128 5 12 13 22 30 22 38 0 25 -30 59 -66 74 -45 19 -45 39 0
32 24 -4 39 -1 47 9 18 21 -1 35 -54 41 -37 4 -49 1 -66 -16z"/>
<path d="M1815 417 c-3 -7 -4 -56 -3 -108 l3 -94 33 -3 33 -3 -3 108 -3 108
-28 3 c-16 2 -29 -2 -32 -11z"/>
<path d="M1945 404 c-66 -72 -26 -194 64 -194 16 0 33 5 36 10 10 17 25 11 25
-9 0 -43 -68 -69 -99 -38 -10 10 -15 8 -27 -8 -18 -24 -14 -36 17 -53 35 -19
105 -9 135 19 35 33 46 81 42 194 -3 96 -4 100 -26 103 -13 2 -30 -2 -38 -9
-11 -9 -18 -9 -26 -1 -22 22 -77 14 -103 -14z"/>
<path d="M2170 320 l0 -110 30 0 30 0 0 64 c0 68 14 96 49 96 31 0 41 -22 41
-92 l0 -68 30 0 30 0 0 78 c0 42 -6 88 -13 102 -17 34 -59 47 -100 32 -21 -8
-33 -9 -35 -2 -2 5 -17 10 -33 10 l-29 0 0 -110z"/>
</g>
</svg>
